<svg width="200" height="200" viewBox="0 0 200 200" fill="none" xmlns="http://www.w3.org/2000/svg">
<path d="M83.3219 60.7724C103.946 50.9926 128.13 56.7767 142.101 73.2539L120.499 94.2595C118.034 96.6569 118.034 100.5 120.499 102.86C121.712 104.039 123.317 104.648 124.921 104.648C126.526 104.648 128.13 104.039 129.343 102.86L148.989 83.7567L199.119 183.723C200.254 186.007 200.332 188.785 199.119 191.22C197.006 195.444 191.723 197.194 187.379 195.139L135.096 170.329L154.35 151.606C156.815 149.247 156.815 145.365 154.35 143.006C151.885 140.647 147.932 140.647 145.506 143.006L123.199 164.697L83.2828 145.746C73.8907 141.294 65.8682 133.835 60.9374 124.017C49.1581 100.538 59.1763 72.2265 83.3219 60.7724Z" fill="#F98109"/>
<path d="M47.5437 46.5918C39.9257 31.0102 43.8714 12.5955 59.3807 0C79.0311 15.9645 79.8905 41.1555 62.467 58.1536L59.3417 61.2163C41.9962 78.2911 16.2516 77.4488 5.24521e-06 58.1919C12.8528 42.9931 31.6437 39.1264 47.5437 46.5918Z" fill="#3F9C10"/>
</svg>
